<svg width="278" height="237" viewBox="0 0 278 237" fill="none" xmlns="http://www.w3.org/2000/svg">
<path fill-rule="evenodd" clip-rule="evenodd" d="M130.391 0.184063C150.204 -1.39769 170.223 7.36326 185.328 20.7634C199.554 33.3839 198.484 56.6997 210.691 71.4222C230.211 94.9642 270.675 101.014 277.033 131.364C282.988 159.79 260.334 188.238 239.156 207.294C219.147 225.297 191.115 227.068 165.081 232.097C141.563 236.641 118.497 238.795 94.8295 235.177C67.9734 231.072 32.6949 234.011 18.8961 209.749C4.47018 184.385 34.7042 153.496 31.7156 124.206C28.9114 96.7234 -10.0621 73.2352 2.4795 48.8559C15.3676 23.803 54.9382 38.8981 80.6302 29.122C98.8507 22.1889 111.042 1.72884 130.391 0.184063Z" fill="#E3F7FC"/>
</svg>
