<svg width="287" height="243" viewBox="0 0 287 243" fill="none" xmlns="http://www.w3.org/2000/svg">
<path fill-rule="evenodd" clip-rule="evenodd" d="M139.317 18.3526C159.236 22.7838 178.545 26.0469 197.082 33.8657C217.929 42.6584 239.526 50.7111 253.921 66.691C270.662 85.2759 293.054 108.458 284.642 131.066C275.863 154.663 237.832 155.817 215.262 170.593C199.096 181.175 187.633 195.225 171.122 205.381C147.62 219.839 126.846 242.306 98.2519 242.572C68.3847 242.85 38.7428 227.62 20.3921 206.785C2.35916 186.31 2.64664 158.307 1.17978 132.357C-0.163324 108.597 2.45462 85.2654 12.2702 63.1017C22.4617 40.0892 32.5126 12.166 58.4555 3.0282C84.6214 -6.18812 112.032 12.2832 139.317 18.3526Z" fill="#E3F7FC"/>
</svg>
