<svg width="15" height="16" viewBox="0 0 15 16" fill="none" xmlns="http://www.w3.org/2000/svg">
<g clip-path="url(#clip0_299_634)">
<path d="M11.0041 15.0075C10.4322 15.0075 9.62886 14.8007 8.42593 14.1286C6.96313 13.3083 5.83169 12.551 4.3768 11.0999C2.97407 9.69807 2.29145 8.79045 1.33608 7.05197C0.256785 5.08908 0.440769 4.06018 0.646433 3.62043C0.891355 3.09485 1.25288 2.78049 1.72016 2.46848C1.98558 2.29458 2.26645 2.14551 2.55923 2.02317C2.58852 2.01057 2.61577 1.99856 2.64009 1.98772C2.78511 1.92238 3.00483 1.82365 3.28315 1.92912C3.46889 1.99885 3.63472 2.14153 3.89429 2.39787C4.42661 2.92287 5.15405 4.09211 5.42241 4.66633C5.60259 5.05334 5.72182 5.30881 5.72212 5.59533C5.72212 5.93078 5.55337 6.18947 5.34858 6.46867C5.3102 6.52111 5.27212 6.57121 5.2352 6.61985C5.01225 6.91281 4.96333 6.99748 4.99555 7.14865C5.06089 7.45246 5.54809 8.35686 6.34878 9.15578C7.14946 9.95471 8.02778 10.4112 8.33276 10.4762C8.49038 10.5099 8.57681 10.4589 8.87915 10.228C8.92251 10.1949 8.96704 10.1607 9.01362 10.1264C9.32593 9.89406 9.57261 9.72971 9.90014 9.72971H9.9019C10.187 9.72971 10.431 9.85334 10.8353 10.0572C11.3626 10.3233 12.567 11.0413 13.0953 11.5742C13.3522 11.8332 13.4955 11.9985 13.5655 12.1839C13.6709 12.4631 13.5716 12.682 13.5069 12.8284C13.496 12.8528 13.484 12.8794 13.4714 12.909C13.3481 13.2013 13.1982 13.4815 13.0235 13.7463C12.7121 14.2121 12.3965 14.5728 11.8698 14.818C11.5993 14.9459 11.3033 15.0107 11.0041 15.0075Z" fill="#AB6CEB"/>
</g>
<defs>
<clipPath id="clip0_299_634">
<rect width="15" height="15" fill="white" transform="translate(0 0.562256)"/>
</clipPath>
</defs>
</svg>
