<svg width="207" height="57" viewBox="0 0 207 57" fill="none" xmlns="http://www.w3.org/2000/svg">
<path fill-rule="evenodd" clip-rule="evenodd" d="M197 45C202.523 45 207 40.5228 207 35C207 29.4772 202.523 25 197 25C191.477 25 187 29.4772 187 35C187 40.5228 191.477 45 197 45ZM198.209 32.1281C201.941 31.5952 203.175 30.8593 202.937 29.1954C202.699 27.5315 201.044 25.671 196.707 26.2903C193.176 26.7944 191.3 29.159 191.538 30.8229C191.776 32.4868 194.477 32.661 198.209 32.1281Z" fill="#E3F7FC"/>
<path fill-rule="evenodd" clip-rule="evenodd" d="M135.5 15C139.642 15 143 11.6421 143 7.5C143 3.35786 139.642 0 135.5 0C131.358 0 128 3.35786 128 7.5C128 11.6421 131.358 15 135.5 15ZM136.407 5.34605C139.206 4.94638 140.131 4.39451 139.953 3.14657C139.775 1.89863 138.533 0.503218 135.28 0.967698C132.632 1.34576 131.225 3.11924 131.403 4.36718C131.582 5.61512 133.607 5.74572 136.407 5.34605Z" fill="#E3F7FC"/>
<path fill-rule="evenodd" clip-rule="evenodd" d="M10 51C15.5228 51 20 46.5228 20 41C20 35.4772 15.5228 31 10 31C4.47715 31 0 35.4772 0 41C0 46.5228 4.47715 51 10 51ZM11.2091 38.1282C14.9415 37.5953 16.1746 36.8595 15.937 35.1956C15.6994 33.5317 14.0442 31.6711 9.70651 32.2904C6.17584 32.7945 4.3004 35.1592 4.53796 36.8231C4.77552 38.487 7.47663 38.6611 11.2091 38.1282Z" fill="#E3F7FC"/>
<path d="M63 7L64.3471 10.6852L68.7063 10.6852L65.1796 12.9628L66.5267 16.6481L63 14.3705L59.4733 16.6481L60.8204 12.9628L57.2937 10.6852L61.6529 10.6852L63 7Z" fill="#E0CCF5"/>
<path d="M151.5 41L153.408 46.2208H159.584L154.588 49.4474L156.496 54.6681L151.5 51.4415L146.504 54.6681L148.412 49.4474L143.416 46.2208H149.592L151.5 41Z" fill="#E0CCF5"/>
</svg>
