<svg width="18" height="18" viewBox="0 0 18 18" fill="none" xmlns="http://www.w3.org/2000/svg">
<path d="M14.5628 5.00925C15.3353 5.82975 15.75 6.75 15.75 8.24175C15.75 10.8667 13.908 13.2195 11.2275 14.3827L10.5578 13.3492C13.059 11.9962 13.548 10.2405 13.7438 9.1335C13.341 9.342 12.8138 9.41475 12.2963 9.36675C10.9433 9.2415 9.87675 8.13075 9.87675 6.75C9.87675 6.05381 10.1533 5.38613 10.6456 4.89384C11.1379 4.40156 11.8056 4.125 12.5018 4.125C13.3065 4.125 14.0768 4.4925 14.5628 5.00925ZM7.06275 5.00925C7.83525 5.82975 8.25 6.75 8.25 8.24175C8.25 10.8667 6.408 13.2195 3.7275 14.3827L3.05775 13.3492C5.559 11.9962 6.048 10.2405 6.243 9.1335C5.84025 9.342 5.313 9.41475 4.79625 9.36675C3.44325 9.24225 2.3775 8.1315 2.3775 6.75C2.3775 6.05381 2.65406 5.38613 3.14635 4.89384C3.63863 4.40156 4.30631 4.125 5.0025 4.125C5.80725 4.125 6.5775 4.4925 7.0635 5.00925" fill="#AB6CEB"/>
</svg>
