<svg width="351" height="773" viewBox="0 0 351 773" fill="none" xmlns="http://www.w3.org/2000/svg">
<path fill-rule="evenodd" clip-rule="evenodd" d="M153.695 401C143.415 401 135.082 393.165 135.082 383.5C135.082 373.835 143.415 366 153.695 366C163.975 366 172.309 373.835 172.309 383.5C172.309 393.165 163.975 401 153.695 401ZM151.445 378.474C144.498 377.542 142.202 376.254 142.645 373.342C143.087 370.43 146.168 367.174 154.242 368.258C160.814 369.14 164.304 373.278 163.862 376.19C163.42 379.102 158.392 379.407 151.445 378.474Z" fill="#E3F7FC"/>
<path fill-rule="evenodd" clip-rule="evenodd" d="M255.805 485C245.525 485 237.191 477.165 237.191 467.5C237.191 457.835 245.525 450 255.805 450C266.085 450 274.418 457.835 274.418 467.5C274.418 477.165 266.085 485 255.805 485ZM253.554 462.474C246.607 461.542 244.311 460.254 244.754 457.342C245.196 454.43 248.277 451.174 256.351 452.258C262.923 453.14 266.414 457.278 265.971 460.19C265.529 463.102 260.501 463.407 253.554 462.474Z" fill="#E3F7FC"/>
<path fill-rule="evenodd" clip-rule="evenodd" d="M316.432 269C309.089 269 303.136 263.404 303.136 256.5C303.136 249.596 309.089 244 316.432 244C323.775 244 329.727 249.596 329.727 256.5C329.727 263.404 323.775 269 316.432 269ZM314.824 252.91C309.862 252.244 308.222 251.324 308.538 249.244C308.854 247.164 311.055 244.839 316.822 245.613C321.516 246.243 324.01 249.199 323.694 251.279C323.378 253.359 319.787 253.576 314.824 252.91Z" fill="#E3F7FC"/>
<path fill-rule="evenodd" clip-rule="evenodd" d="M46.8 773C20.9531 773 0 753.301 0 729C0 704.699 20.9531 685 46.8 685C72.6469 685 93.6 704.699 93.6 729C93.6 753.301 72.6469 773 46.8 773ZM41.1416 716.364C23.6739 714.019 17.9031 710.781 19.0149 703.46C20.1267 696.139 27.8732 687.952 48.1735 690.677C64.6971 692.895 73.4741 703.3 72.3623 710.621C71.2505 717.942 58.6093 718.708 41.1416 716.364Z" fill="#E3F7FC"/>
<path fill-rule="evenodd" clip-rule="evenodd" d="M329.727 640C317.979 640 308.455 631.046 308.455 620C308.455 608.954 317.979 600 329.727 600C341.476 600 351 608.954 351 620C351 631.046 341.476 640 329.727 640ZM327.155 614.256C319.215 613.19 316.592 611.719 317.098 608.391C317.603 605.063 321.124 601.342 330.352 602.581C337.862 603.589 341.852 608.318 341.347 611.646C340.841 614.974 335.095 615.322 327.155 614.256Z" fill="#E3F7FC"/>
<path fill-rule="evenodd" clip-rule="evenodd" d="M163.8 20C157.926 20 153.164 15.5228 153.164 10C153.164 4.47715 157.926 0 163.8 0C169.674 0 174.436 4.47715 174.436 10C174.436 15.5228 169.674 20 163.8 20ZM162.514 7.12806C158.544 6.59517 157.233 5.85934 157.485 4.19543C157.738 2.53151 159.498 0.670957 164.112 1.29026C167.868 1.79435 169.862 4.15899 169.61 5.82291C169.357 7.48682 166.484 7.66095 162.514 7.12806Z" fill="#E3F7FC"/>
<path fill-rule="evenodd" clip-rule="evenodd" d="M145.718 191C139.844 191 135.082 186.523 135.082 181C135.082 175.477 139.844 171 145.718 171C151.592 171 156.355 175.477 156.355 181C156.355 186.523 151.592 191 145.718 191ZM144.432 178.128C140.462 177.595 139.151 176.859 139.403 175.195C139.656 173.532 141.417 171.671 146.03 172.29C149.786 172.794 151.78 175.159 151.528 176.823C151.275 178.487 148.402 178.661 144.432 178.128Z" fill="#E3F7FC"/>
<path fill-rule="evenodd" clip-rule="evenodd" d="M23.9318 576C13.6518 576 5.31818 568.165 5.31818 558.5C5.31818 548.835 13.6518 541 23.9318 541C34.2118 541 42.5454 548.835 42.5454 558.5C42.5454 568.165 34.2118 576 23.9318 576ZM21.6813 553.474C14.7339 552.542 12.4387 551.254 12.8809 548.342C13.3231 545.43 16.4041 542.174 24.4781 543.258C31.05 544.14 34.5409 548.278 34.0987 551.19C33.6565 554.102 28.6287 554.407 21.6813 553.474Z" fill="#E3F7FC"/>
<path d="M196.241 232L193.017 240.292H182.585L191.025 245.416L187.801 253.708L196.241 248.584L204.681 253.708L201.457 245.416L209.897 240.292H199.465L196.241 232Z" fill="#E0CCF5"/>
<path d="M288.777 100L285.553 108.292H275.121L283.561 113.416L280.337 121.708L288.777 116.584L297.217 121.708L293.994 113.416L302.434 108.292H292.001L288.777 100Z" fill="#E0CCF5" fill-opacity="0.32"/>
<path d="M56.9045 68L53.6807 76.2918H43.2482L51.6883 81.4164L48.4645 89.7082L56.9045 84.5836L65.3446 89.7082L62.1208 81.4164L70.5609 76.2918H60.1284L56.9045 68Z" fill="#E0CCF5"/>
</svg>
