<svg width="330" height="773" viewBox="0 0 330 773" fill="none" xmlns="http://www.w3.org/2000/svg">
<path fill-rule="evenodd" clip-rule="evenodd" d="M185.5 401C195.165 401 203 393.165 203 383.5C203 373.835 195.165 366 185.5 366C175.835 366 168 373.835 168 383.5C168 393.165 175.835 401 185.5 401ZM187.616 378.474C194.148 377.542 196.305 376.254 195.89 373.342C195.474 370.43 192.577 367.174 184.986 368.258C178.808 369.14 175.526 373.278 175.941 376.19C176.357 379.102 181.084 379.407 187.616 378.474Z" fill="#E3F7FC"/>
<path fill-rule="evenodd" clip-rule="evenodd" d="M89.5 485C99.165 485 107 477.165 107 467.5C107 457.835 99.165 450 89.5 450C79.835 450 72 457.835 72 467.5C72 477.165 79.835 485 89.5 485ZM91.6159 462.474C98.1476 461.542 100.305 460.254 99.8897 457.342C99.474 454.43 96.5774 451.174 88.9864 452.258C82.8077 453.14 79.5257 457.278 79.9414 460.19C80.3572 463.102 85.0841 463.407 91.6159 462.474Z" fill="#E3F7FC"/>
<path fill-rule="evenodd" clip-rule="evenodd" d="M32.5 269C39.4036 269 45 263.404 45 256.5C45 249.596 39.4036 244 32.5 244C25.5964 244 20 249.596 20 256.5C20 263.404 25.5964 269 32.5 269ZM34.0113 252.91C38.6769 252.244 40.2182 251.324 39.9213 249.244C39.6243 247.164 37.5553 244.839 32.1332 245.613C27.7198 246.243 25.3755 249.199 25.6725 251.279C25.9694 253.359 29.3458 253.576 34.0113 252.91Z" fill="#E3F7FC"/>
<path fill-rule="evenodd" clip-rule="evenodd" d="M286 773C310.301 773 330 753.301 330 729C330 704.699 310.301 685 286 685C261.699 685 242 704.699 242 729C242 753.301 261.699 773 286 773ZM291.32 716.364C307.743 714.019 313.168 710.781 312.123 703.46C311.077 696.139 303.794 687.952 284.709 690.677C269.174 692.895 260.922 703.3 261.967 710.621C263.012 717.942 274.897 718.708 291.32 716.364Z" fill="#E3F7FC"/>
<path fill-rule="evenodd" clip-rule="evenodd" d="M20 640C31.0457 640 40 631.046 40 620C40 608.954 31.0457 600 20 600C8.9543 600 0 608.954 0 620C0 631.046 8.9543 640 20 640ZM22.4181 614.256C29.883 613.19 32.3491 611.719 31.874 608.391C31.3989 605.063 28.0884 601.342 19.413 602.581C12.3517 603.589 8.60079 608.318 9.07592 611.646C9.55105 614.974 14.9533 615.322 22.4181 614.256Z" fill="#E3F7FC"/>
<path fill-rule="evenodd" clip-rule="evenodd" d="M176 20C181.523 20 186 15.5228 186 10C186 4.47715 181.523 0 176 0C170.477 0 166 4.47715 166 10C166 15.5228 170.477 20 176 20ZM177.209 7.12806C180.941 6.59517 182.175 5.85934 181.937 4.19543C181.699 2.53151 180.044 0.670957 175.707 1.29026C172.176 1.79435 170.3 4.15899 170.538 5.82291C170.776 7.48682 173.477 7.66095 177.209 7.12806Z" fill="#E3F7FC"/>
<path fill-rule="evenodd" clip-rule="evenodd" d="M193 191C198.523 191 203 186.523 203 181C203 175.477 198.523 171 193 171C187.477 171 183 175.477 183 181C183 186.523 187.477 191 193 191ZM194.209 178.128C197.941 177.595 199.175 176.859 198.937 175.195C198.699 173.532 197.044 171.671 192.707 172.29C189.176 172.794 187.3 175.159 187.538 176.823C187.776 178.487 190.477 178.661 194.209 178.128Z" fill="#E3F7FC"/>
<path fill-rule="evenodd" clip-rule="evenodd" d="M307.5 576C317.165 576 325 568.165 325 558.5C325 548.835 317.165 541 307.5 541C297.835 541 290 548.835 290 558.5C290 568.165 297.835 576 307.5 576ZM309.616 553.474C316.148 552.542 318.305 551.254 317.89 548.342C317.474 545.43 314.577 542.174 306.986 543.258C300.808 544.14 297.526 548.278 297.941 551.19C298.357 554.102 303.084 554.407 309.616 553.474Z" fill="#E3F7FC"/>
<path d="M145.5 232L148.531 240.292H158.339L150.404 245.416L153.435 253.708L145.5 248.584L137.565 253.708L140.596 245.416L132.661 240.292H142.469L145.5 232Z" fill="#E0CCF5"/>
<path d="M58.5 100L61.5309 108.292H71.3393L63.4042 113.416L66.4351 121.708L58.5 116.584L50.5649 121.708L53.5958 113.416L45.6607 108.292H55.4691L58.5 100Z" fill="#E0CCF5" fill-opacity="0.32"/>
<path d="M276.5 68L279.531 76.2918H289.339L281.404 81.4164L284.435 89.7082L276.5 84.5836L268.565 89.7082L271.596 81.4164L263.661 76.2918H273.469L276.5 68Z" fill="#E0CCF5"/>
</svg>
