<svg width="30" height="30" viewBox="0 0 30 30" fill="none" xmlns="http://www.w3.org/2000/svg">
<path d="M16.0547 1.875C10.8791 1.875 6.67969 5.65488 6.67969 10.3125C6.67969 17.8125 16.0547 28.125 16.0547 28.125C16.0547 28.125 25.4297 17.8125 25.4297 10.3125C25.4297 5.65488 21.2303 1.875 16.0547 1.875ZM16.0547 15C15.313 15 14.588 14.7801 13.9713 14.368C13.3546 13.956 12.874 13.3703 12.5901 12.6851C12.3063 11.9998 12.232 11.2458 12.3767 10.5184C12.5214 9.79098 12.8786 9.1228 13.403 8.59835C13.9275 8.0739 14.5957 7.71675 15.3231 7.57205C16.0505 7.42736 16.8045 7.50162 17.4897 7.78545C18.175 8.06928 18.7606 8.54993 19.1727 9.16661C19.5848 9.7833 19.8047 10.5083 19.8047 11.25C19.8036 12.2442 19.4082 13.1974 18.7051 13.9005C18.0021 14.6035 17.0489 14.9989 16.0547 15Z" fill="#AB6CEB"/>
</svg>
