<svg width="18" height="19" viewBox="0 0 18 19" fill="none" xmlns="http://www.w3.org/2000/svg">
<path d="M7.875 11.1875C7.76379 11.1874 7.65508 11.1544 7.56263 11.0926C7.47017 11.0308 7.39812 10.943 7.35556 10.8402C7.31301 10.7375 7.30187 10.6244 7.32355 10.5153C7.34524 10.4063 7.39877 10.306 7.47738 10.2274L13.03 4.67481C12.7426 4.51878 12.4207 4.4372 12.0938 4.4375H3.65625C3.13428 4.43806 2.63384 4.64566 2.26475 5.01475C1.89566 5.38384 1.68806 5.88428 1.6875 6.40625V14.8438C1.68806 15.3657 1.89566 15.8662 2.26475 16.2353C2.63384 16.6043 3.13428 16.8119 3.65625 16.8125H12.0938C12.6157 16.8119 13.1162 16.6043 13.4853 16.2353C13.8543 15.8662 14.0619 15.3657 14.0625 14.8438V6.40625C14.0628 6.07926 13.9812 5.7574 13.8252 5.47004L8.27262 11.0226C8.2205 11.075 8.15854 11.1165 8.09029 11.1448C8.02205 11.1731 7.94888 11.1876 7.875 11.1875Z" fill="#FDFDFD"/>
<path d="M15.75 2.1875H11.8125C11.6633 2.1875 11.5202 2.24676 11.4148 2.35225C11.3093 2.45774 11.25 2.60082 11.25 2.75C11.25 2.89918 11.3093 3.04226 11.4148 3.14775C11.5202 3.25324 11.6633 3.3125 11.8125 3.3125H14.3919L13.03 4.6748C13.3663 4.8575 13.6425 5.13371 13.8252 5.47004L15.1875 4.10809V6.6875C15.1875 6.83668 15.2468 6.97976 15.3523 7.08525C15.4577 7.19074 15.6008 7.25 15.75 7.25C15.8992 7.25 16.0423 7.19074 16.1477 7.08525C16.2532 6.97976 16.3125 6.83668 16.3125 6.6875V2.75C16.3125 2.60082 16.2532 2.45774 16.1477 2.35225C16.0423 2.24676 15.8992 2.1875 15.75 2.1875Z" fill="#FDFDFD"/>
</svg>
