<svg width="15" height="16" viewBox="0 0 15 16" fill="none" xmlns="http://www.w3.org/2000/svg">
<path d="M7.5 1.95288C4.13467 1.95288 1.40625 4.6813 1.40625 8.04663C1.40625 11.412 4.13467 14.1404 7.5 14.1404C10.8653 14.1404 13.5938 11.412 13.5938 8.04663C13.5938 4.6813 10.8653 1.95288 7.5 1.95288ZM10.3125 8.98413H7.5C7.37568 8.98413 7.25645 8.93475 7.16854 8.84684C7.08064 8.75893 7.03125 8.6397 7.03125 8.51538V4.29663C7.03125 4.17231 7.08064 4.05308 7.16854 3.96517C7.25645 3.87727 7.37568 3.82788 7.5 3.82788C7.62432 3.82788 7.74355 3.87727 7.83146 3.96517C7.91936 4.05308 7.96875 4.17231 7.96875 4.29663V8.04663H10.3125C10.4368 8.04663 10.556 8.09602 10.644 8.18392C10.7319 8.27183 10.7812 8.39106 10.7812 8.51538C10.7812 8.6397 10.7319 8.75893 10.644 8.84684C10.556 8.93475 10.4368 8.98413 10.3125 8.98413Z" fill="#AB6CEB"/>
</svg>
